<?xml version="1.0" encoding="utf-8"?>
<!-- Generator: Adobe Illustrator 28.1.0, SVG Export Plug-In . SVG Version: 6.00 Build 0)  -->
<svg version="1.1" id="Layer_1" xmlns="http://www.w3.org/2000/svg" xmlns:xlink="http://www.w3.org/1999/xlink" x="0px" y="0px"
	 viewBox="0 0 572.16 166.73" style="enable-background:new 0 0 572.16 166.73;" xml:space="preserve">
<style type="text/css">
	<!-- .st0{fill:#174D4D;} -->
</style>
<g>
	<path class="st0" d="M344.1,81.19c0-8.97-0.02-17.94,0-26.9c0.02-7.58,0.07-15.17,0.12-22.75c0.03-6.17,0.01-12.33,0.13-18.5
		c0.05-2.58,0.54-5.15,2.16-7.27c1.69-2.2,3.99-3.64,6.73-3.98c2.87-0.35,5.78-0.39,8.68-0.41c7.85-0.06,15.71-0.02,23.56-0.06
		c3.83-0.02,7.65-0.23,11.48-0.14c4.38,0.1,8.76,0.36,13.13,0.7c5.04,0.4,9.82,1.93,14.36,4.07c3.07,1.44,5.97,3.26,8.37,5.73
		c3.7,3.8,6.36,8.19,7.48,13.44c0.44,2.06,0.92,4.11,1.31,6.18c0.12,0.64,0.03,1.31,0.02,1.97c-0.03,2.57,0.05,5.15-0.14,7.71
		c-0.22,2.88-0.8,5.69-1.71,8.47c-0.56,1.71-1.26,3.31-2.11,4.87c-0.48,0.89-1.09,1.72-1.62,2.59c-1.61,2.61-3.59,4.91-6.04,6.72
		c-2.21,1.64-4.6,3.07-7.02,4.38c-1.75,0.94-3.68,1.6-5.57,2.26c-1.14,0.4-2.36,0.55-3.54,0.84c-0.32,0.08-0.6,0.29-0.9,0.43
		c0.24,0.27,0.44,0.68,0.74,0.79c0.83,0.31,1.72,0.45,2.55,0.75c3.89,1.41,7.11,3.79,9.56,7.07c2.86,3.82,5.53,7.78,8.24,11.71
		c2.58,3.74,5.09,7.54,7.67,11.28c1.87,2.71,3.05,5.6,2.67,8.96c-0.21,1.87-0.8,3.62-2.16,4.99c-2.14,2.16-4.7,3.66-7.71,4.16
		c-3.42,0.58-6.65-0.07-9.71-1.79c-2.01-1.13-3.33-2.82-4.57-4.66c-2.51-3.75-5.04-7.48-7.56-11.23c-2.35-3.5-4.69-7.01-7.06-10.5
		c-2.78-4.09-5.52-8.2-8.41-12.21c-1.8-2.5-3.91-4.82-6.87-5.92c-1.85-0.69-3.89-1.08-5.86-1.16c-4.58-0.18-9.17-0.08-13.76-0.13
		c-0.73-0.01-1.06,0.32-1.06,0.98c-0.03,4.68-0.04,9.36-0.05,14.04c0,2.27,0.04,4.55,0.03,6.82c-0.03,4.88,0.05,9.77-0.16,14.64
		c-0.14,3.25-1.63,5.93-4.2,8.05c-2.91,2.39-6.27,2.57-9.79,2.48c-3.15-0.08-5.76-1.4-8.01-3.41c-1.56-1.4-2.52-3.26-2.94-5.37
		c-1.26-6.32-0.31-12.69-0.52-19.04c-0.13-3.89-0.02-7.78-0.02-11.67C344.07,81.19,344.09,81.19,344.1,81.19z M395.29,54.35
		c0-0.03,0-0.05,0-0.08c1.61-0.09,3.22-0.16,4.83-0.29c3.21-0.26,6.3-0.97,9.25-2.33c3.95-1.83,6.06-5.1,7.09-9.11
		c0.73-2.85,0.79-5.74,0.32-8.71c-0.86-5.47-3.76-9.17-8.9-11.07c-3.88-1.44-7.99-1.72-12.07-1.81c-5.43-0.12-10.88,0.06-16.31,0.09
		c-2.8,0.02-5.6-0.02-8.41-0.02c-1.01,0-1.34,0.29-1.34,1.15c0.01,5.3,0.04,10.61,0.01,15.91c-0.03,4.71-0.11,9.43-0.24,14.14
		c-0.05,1.74,0.22,2.14,1.93,2.14C379.4,54.35,387.34,54.35,395.29,54.35z"/>
	<path class="st0" d="M214.21,72.66c0-5.44-0.02-10.88,0-16.32c0.02-5.24,0.12-10.49,0.11-15.73c-0.01-6.13-0.12-12.26-0.17-18.39
		c-0.03-3.43-0.11-6.86-0.03-10.28c0.06-2.32,0.98-4.41,2.24-6.35c1.99-3.07,4.91-4.4,8.45-4.93c3.3-0.49,6.3,0.12,9.15,1.68
		c2.73,1.5,4.17,3.9,5.12,6.88c1.17,3.64,0.51,7.27,0.58,10.89c0.16,8.07,0.1,16.15,0.12,24.22c0,1.09-0.05,2.18-0.12,3.26
		c-0.09,1.35,0.35,1.94,1.69,1.98c2.51,0.07,5.01,0.1,7.52,0.1c4.72,0,9.44-0.04,14.15-0.06c6.7-0.03,13.39-0.06,20.09-0.07
		c3.26,0,6.53,0.04,9.79,0.07c1.9,0.02,1.89-0.05,1.87-1.92c-0.03-3.26,0.07-6.53,0.09-9.79c0.03-3.95,0.06-7.91,0.04-11.86
		c-0.01-2.86-0.13-5.72-0.15-8.58c-0.01-1.71-0.05-3.43,0.16-5.12c0.34-2.8,0.91-5.57,2.94-7.75c2.1-2.26,4.72-3.45,7.74-3.88
		c2.03-0.28,4-0.05,5.98,0.39c2.91,0.65,4.99,2.41,6.67,4.77c1.47,2.07,2.03,4.37,2.01,6.89c-0.07,10.09-0.13,20.18-0.15,30.27
		c-0.01,5.04,0.12,10.09,0.14,15.13c0.02,4.68-0.03,9.36-0.03,14.05c0,6.13,0.03,12.27,0.01,18.4c-0.02,6.1-0.08,12.2-0.16,18.3
		c-0.07,5.1-3.4,9.71-8.28,11.12c-2.19,0.63-4.52,0.96-6.84,0.35c-0.76-0.2-1.58-0.18-2.32-0.42c-2.41-0.76-4.35-2.31-5.76-4.32
		c-0.82-1.17-1.29-2.67-1.58-4.09c-1.03-5.09-0.23-10.25-0.43-15.38c-0.15-4.02-0.09-8.04-0.11-12.06
		c-0.01-3.92-0.01-7.85-0.01-11.77c0-0.16,0.02-0.33,0.04-0.49c0.29-1.91,0.03-2.1-1.84-2.05c-3.06,0.08-6.13,0.02-9.19,0.02
		c-2.7,0.01-5.4,0.04-8.09,0.04c-3.5,0-6.99-0.05-10.49-0.05c-3.49-0.01-6.98-0.01-10.48,0.02c-3.95,0.04-7.9,0.13-11.85,0.18
		c-0.63,0.01-1.26-0.01-1.88-0.08c-0.86-0.1-1.2,0.22-1.2,1.09c0.01,3.56-0.04,7.12-0.03,10.68c0.01,3.96,0.09,7.91,0.08,11.87
		c0,5.28,0.05,10.55-0.11,15.82c-0.09,2.9-1.19,5.51-3.25,7.66c-2.4,2.5-5.38,3.48-8.78,3.64c-2.61,0.12-5.03-0.44-7.37-1.54
		c-2.08-0.98-3.35-2.7-4.42-4.63c-1.19-2.13-1.61-4.44-1.61-6.84c0-5.97,0-11.94,0-17.91c0-5.7,0-11.4,0-17.1
		C214.27,72.66,214.24,72.66,214.21,72.66z"/>
	<path class="st0" d="M126.94,122.75c-3.55,0.38-6.89-0.67-10-2.32c-3.57-1.9-6.64-4.46-8.52-8.12c-0.84-1.64-1.37-3.47-1.84-5.27
		c-0.29-1.14-1.14-1.39-1.96-1.73c-2.77-1.15-5.56-2.22-8.33-3.35c-3.66-1.49-7.32-3-10.98-4.49c-3.48-1.41-6.96-2.78-10.43-4.21
		c-0.62-0.26-0.98,0.01-1.41,0.35c-1.65,1.31-3.22,2.74-4.99,3.86c-3.42,2.15-7.21,2.98-11.24,2.61c-0.98-0.09-1.97-0.13-2.95-0.23
		c-1.42-0.14-1.74,1.06-2.22,1.91c-1.5,2.66-2.88,5.39-4.32,8.08c-1.52,2.84-3.07,5.66-4.6,8.49c-1.58,2.91-3.15,5.84-4.74,8.74
		c-0.92,1.67-1.89,3.31-2.84,4.95c-0.32,0.56-0.32,1.08,0.16,1.53c1.95,1.82,2.91,4.22,3.67,6.66c0.58,1.87,1.03,3.85,1.1,5.8
		c0.07,1.84-0.2,3.77-0.71,5.55c-0.57,2.01-1.29,4.07-2.43,5.79c-1.27,1.92-2.92,3.66-4.69,5.15c-3.47,2.93-7.67,4.16-12.17,4.22
		c-1.56,0.02-3.16-0.27-4.69-0.62c-4.9-1.12-8.83-3.85-11.73-7.86c-3.39-4.69-4.76-9.91-3.7-15.77c0.5-2.77,1.45-5.29,2.9-7.6
		c0.98-1.55,2.31-2.97,3.73-4.14c1.61-1.33,3.38-2.56,5.28-3.4c3.32-1.48,6.87-1.77,10.48-1.21c1.6,0.25,1.69,0.24,2.45-1.13
		c1.64-2.97,3.26-5.95,4.87-8.94c2.06-3.82,4.11-7.65,6.16-11.48c1.26-2.35,2.47-4.73,3.75-7.07c0.66-1.22,1.4-2.39,2.09-3.58
		c0.62-1.08,0.51-1.52-0.34-2.43c-1.56-1.66-2.62-3.62-3.14-5.83c-0.34-1.47-0.7-2.96-0.76-4.46c-0.07-1.8,0-3.63,0.29-5.41
		c0.57-3.55,2.17-6.63,4.5-9.41c1.89-2.26,4.15-4.02,6.73-5.23c3.5-1.64,7.23-2.37,11.17-1.76c4.41,0.67,8.29,2.44,11.51,5.46
		c1.45,1.36,2.6,3.05,3.77,4.67c1.88,2.62,2.48,5.7,2.88,8.82c0.08,0.61,0.04,1.25-0.04,1.86c-0.12,0.86,0.19,1.39,0.99,1.7
		c2.23,0.89,4.46,1.8,6.69,2.7c1.74,0.7,3.48,1.4,5.22,2.11c3.15,1.27,6.3,2.53,9.43,3.82c1.77,0.73,3.5,1.53,5.26,2.27
		c1.36,0.57,1.72,0.28,2.53-0.9c1.04-1.51,2.23-2.95,3.53-4.24c2.79-2.75,6.21-4.38,10.08-4.95c1.49-0.22,3-0.28,4.51-0.35
		c0.74-0.03,1.04-0.47,1.26-1.06c1.14-3.02,2.3-6.03,3.4-9.07c1.24-3.4,2.41-6.82,3.64-10.22c2.48-6.88,4.98-13.75,7.48-20.62
		c0.35-0.96,0.77-1.89,1.11-2.85c0.29-0.82,0.05-1.34-0.79-1.83c-2.12-1.23-3.67-3.11-5.03-5.1c-2.83-4.16-3.68-8.78-3.14-13.75
		c0.4-3.7,1.91-6.86,4.12-9.78c3.87-5.13,9.15-7.73,15.41-8.06c5.55-0.29,10.56,1.59,14.88,5.16c2.6,2.15,4.75,4.7,6.05,7.82
		c2.02,4.83,2.32,9.75,0.23,14.69c-1.13,2.68-2.67,5.13-4.85,7.01c-3.4,2.93-7.25,5.04-11.9,5.22c-1.02,0.04-1.58,0.53-1.9,1.53
		c-0.84,2.63-1.77,5.24-2.7,7.85c-1.18,3.32-2.37,6.64-3.59,9.94c-1.23,3.33-2.5,6.65-3.73,9.99c-1.45,3.93-2.85,7.87-4.3,11.79
		c-0.56,1.51-1.28,2.96-1.82,4.48c-0.16,0.45-0.14,1.14,0.1,1.53c0.47,0.74,1.15,1.35,1.75,1.99c4.67,4.98,5.99,10.97,4.69,17.43
		c-0.89,4.41-3.22,8.22-6.77,11.21C136.56,120.97,132.16,122.8,126.94,122.75z"/>
	<path class="st0" d="M560.32,120.58c-3.84,0.21-6.76-1.45-8.92-4.35c-1.01-1.35-1.59-3.02-2.27-4.59
		c-1.92-4.45-3.79-8.91-5.67-13.37c-0.45-1.06-0.9-2.12-1.28-3.21c-0.32-0.93-0.88-1.4-1.89-1.39c-9.04,0.02-18.08,0.02-27.12,0.05
		c-6.79,0.02-13.59,0.1-20.38,0.13c-2.14,0.01-4.29-0.08-6.43-0.13c-1.49-0.03-1.87,0.29-2.37,1.68c-0.35,0.95-0.88,1.84-1.3,2.77
		c-2.39,5.24-4.82,10.46-7.14,15.73c-1.49,3.37-3.98,5.7-7.47,6.5c-3.49,0.8-7.03,0.53-10.11-1.73c-0.79-0.58-1.6-1.16-2.34-1.81
		c-2.83-2.48-4-7.04-2.35-10.58c1.42-3.04,2.79-6.1,4.22-9.13c1.9-4.02,3.81-8.03,5.75-12.02c1.93-3.97,3.92-7.9,5.85-11.87
		c1.37-2.81,2.65-5.66,4.01-8.48c0.66-1.36,1.45-2.66,2.11-4.02c1.87-3.88,3.69-7.79,5.57-11.67c3.15-6.52,6.36-13.02,9.5-19.55
		c1.43-2.96,2.74-5.98,4.15-8.95c1.14-2.41,2.36-4.78,3.52-7.18c0.82-1.69,1.54-3.43,2.4-5.09c1.74-3.34,4.17-5.98,7.8-7.32
		c5.07-1.88,9.83-1.02,14.23,1.85c2.59,1.69,4.3,4.2,5.52,7.05c1.07,2.51,2.18,5.01,3.32,7.5c2.11,4.61,4.24,9.22,6.38,13.82
		c1.08,2.32,2.25,4.61,3.32,6.94c1.48,3.23,2.89,6.5,4.36,9.73c1.13,2.48,2.34,4.93,3.47,7.41c1.2,2.63,2.33,5.3,3.51,7.94
		c0.39,0.87,0.9,1.69,1.29,2.56c1.89,4.24,3.73,8.49,5.65,12.72c1.43,3.15,2.97,6.24,4.4,9.38c1.54,3.39,3,6.81,4.52,10.21
		c0.75,1.68,1.68,3.29,2.32,5.01c0.95,2.54,2.13,5.09,1.59,7.93c-0.33,1.75-0.8,3.53-2.09,4.82c-1.12,1.13-2.43,2.09-3.73,3.03
		C564.44,120.16,562.42,120.69,560.32,120.58z M514.73,74.05c0,0.02,0,0.04,0,0.05c5.31,0,10.62,0,15.93,0
		c0.43,0,0.86,0.07,1.28,0.02c0.91-0.12,1.15-0.66,0.68-1.46c-0.3-0.51-0.66-0.99-0.9-1.53c-0.79-1.83-1.51-3.69-2.29-5.53
		c-1.34-3.15-2.71-6.28-4.04-9.42c-1.11-2.61-2.19-5.22-3.29-7.83c-0.71-1.69-1.41-3.37-2.13-5.06c-0.22-0.51-0.51-1-0.73-1.51
		c-1.51-3.54-3-7.09-4.54-10.62c-0.15-0.34-0.57-0.74-0.88-0.76c-0.26-0.01-0.66,0.45-0.81,0.78c-1.85,4.15-3.63,8.33-5.48,12.47
		c-1.4,3.12-2.9,6.2-4.31,9.32c-0.86,1.92-1.56,3.9-2.43,5.81c-1.51,3.32-3.09,6.62-4.65,9.92c-0.62,1.31-1.29,2.59-1.9,3.9
		c-0.16,0.36-0.35,0.89-0.2,1.15c0.15,0.26,0.71,0.39,1.1,0.39c1.48,0,2.96-0.1,4.45-0.1C504.64,74.04,509.68,74.05,514.73,74.05z"
		/>
	<path class="st0" d="M231.67,164.76c1.48-0.12,1.68-0.42,1.65-1.93c-0.05-2.37-0.03-4.74,0-7.11c0.02-1.6-0.15-1.71-1.71-1.69
		c-2.97,0.03-5.94-0.02-8.9-0.04c-1.67-0.01-1.92,0.29-1.88,1.97c0.05,2.5,0.02,5,0,7.5c-0.01,0.99,0.38,1.39,1.38,1.27
		c0.16-0.02,0.44-0.07,0.57-0.02c0.29,0.13,0.27,1.01,0,1.06c-0.54,0.09-1.12,0.01-1.68,0.01c-1.61,0.01-3.21,0.03-4.82,0.04
		c-0.33,0-0.69,0.09-0.98,0c-0.32-0.1-0.28-1.05,0.02-1.05c1.41,0.02,1.55-0.06,1.56-1.46c0.03-6.53,0.04-13.05,0.04-19.58
		c0-1.1-0.38-1.41-1.47-1.25c-0.47,0.07-1.03,0.21-1.09-0.45c-0.05-0.62,0.5-0.71,0.99-0.64c2.43,0.31,4.86,0.28,7.28-0.09
		c0.06-0.01,0.15-0.03,0.19,0c0.28,0.17,0.35,1.07,0.08,1.12c-2.06,0.32-2.03,0.3-2.01,2.43c0.01,2.17-0.04,4.35-0.12,6.52
		c-0.05,1.29,0.35,1.76,1.63,1.75c3.13-0.01,6.27-0.01,9.4,0c1.09,0,1.7-0.69,1.67-1.81c-0.06-2.37-0.11-4.73-0.08-7.1
		c0.01-1.49-0.28-1.81-1.75-1.76c-0.35,0.01-1.02-0.31-1.03-0.5c-0.03-0.69,0.6-0.64,1.09-0.63c1.74,0.04,3.48,0.11,5.22,0.12
		c0.59,0,1.19-0.21,1.77-0.16c0.32,0.03,0.35,1.12,0.06,1.13c-1.43,0.03-1.49,0.11-1.49,1.5c0.01,3.26-0.05,6.52-0.06,9.78
		c-0.01,1.94,0.04,3.88,0.03,5.83c0,1.25-0.04,2.5-0.1,3.75c-0.05,1,0.4,1.5,1.4,1.39c0.44-0.05,0.94,0.01,0.98,0.44
		c0.01,0.53-0.5,0.58-1,0.55c-2.26-0.17-4.33-0.15-6.5,0.07C230.81,165.74,230.99,164.81,231.67,164.76z"/>
	<path class="st0" d="M248.17,144.2c0-1.53-0.31-1.8-1.84-1.86c-0.3-0.01-0.32-0.98-0.04-0.98c3.65-0.02,7.31-0.08,10.96,0.05
		c2.22,0.08,4.46,0.64,6.22,2.01c0.85,0.67,1.46,2,1.64,3.11c0.51,3.17-0.84,5.31-3.81,6.57c-0.3,0.13-0.64,0.2-0.91,0.38
		c-0.25,0.17-0.44,0.44-0.66,0.67c0.25,0.23,0.48,0.61,0.76,0.67c2,0.38,2.98,1.88,3.74,3.49c0.6,1.27,1,2.66,1.32,4.03
		c0.29,1.25,0.92,1.97,2.2,2.2c0.63,0.29,0.52,0.99-0.13,1.09c-1.24-0.06-2.48-0.24-3.72-0.34c-1.16-0.09-1.91-0.7-2.26-1.77
		c-0.53-1.59-0.98-3.21-1.52-4.79c-1.01-2.98-2.66-4.76-6.17-4.52c-0.93,0-2.07,0.19-2.06,1.26c0,2.7-0.01,5.4-0.02,8.09
		c0,0.8,0.53,1.02,1.17,1.04c0.59,0.01,1.29-0.15,1.82,0.09c0.32,0.15,0.21,0.9-0.11,0.91c-2.76,0.05-5.52,0.06-8.28,0.02
		c-0.34,0-0.33-0.99,0.01-0.99c1.46-0.01,1.64-0.26,1.61-1.76C248.03,159.83,248.17,147.37,248.17,144.2z M253.07,142.32
		c-0.59,0.01-1.15,0.15-1.15,0.91c-0.02,3.09-0.05,6.18-0.04,9.27c0,0.59,0.25,1.09,1.01,1.06c1.18-0.04,2.35-0.11,3.53-0.06
		c1.9,0.09,3.53-0.8,4.04-2.64c0.38-1.4,0.54-2.91,0.5-4.36c-0.06-1.87-1.03-3.35-2.89-3.92
		C257.11,142.3,253.72,142.31,253.07,142.32z"/>
	<path class="st0" d="M322.87,164.58c0,0.66-0.34,0.95-0.94,1.04c-1.27,0.18-2.16-0.39-2.82-1.42c-1.79-2.76-3.54-5.55-5.39-8.28
		c-2.01-2.97-4.12-5.88-6.18-8.82c-0.41-0.59-0.73-1.25-1.17-1.83c-0.59-0.72-1.19-0.86-1.2,0.46c0.02,5.47,0.08,10.93,0.12,16.4
		c0,0.3-0.01,0.59-0.02,0.89c-0.03,1.21,0.47,1.64,1.7,1.58c1.63,0.08,1.85,0.97,0,0.94c-1.47,0.02-2.94,0.08-4.4,0.01
		c-1.07-0.05-1.31-0.8-0.01-0.94c1.44-0.07,1.57-0.32,1.55-1.72c-0.05-3.89-0.04-7.78-0.03-11.67c0-2.5,0.05-5,0.05-7.5
		c0-1.14-0.56-1.25-1.72-1.41c-1.09-0.15-0.64-0.84-0.13-0.91c1.17-0.16,2.3-0.17,3.51-0.2c2.6-0.07,3.32,1.16,4.35,2.71
		c2.7,4.06,5.44,8.1,8.13,12.16c0.74,1.12,1.35,2.33,2.07,3.47c0.15,0.24,0.5,0.54,0.71,0.51c0.22-0.03,0.53-0.43,0.54-0.68
		c0.06-0.88,0-1.78,0-2.66c0-4.02,0.01-8.04,0.02-12.06c0-0.36,0.02-0.73-0.01-1.09c-0.12-1.18-0.52-1.47-1.69-1.26
		c-0.26,0.05-0.53,0.04-0.73-0.05c-0.44-0.24-0.41-0.79,0-0.94c0.32-0.12,0.72-0.08,1.08-0.08c1.31,0,2.62-0.01,3.93-0.02
		c0.33,0,0.69-0.06,0.98,0.05c0.23,0.08,0.53,0.22,0.51,0.59c-0.01,0.19-0.33,0.37-0.56,0.41c-0.38,0.06-0.8,0.09-1.19,0.04
		c-0.78-0.1-1.12,0.34-1.11,1.18C322.82,147.04,322.85,161.06,322.87,164.58z"/>
	<path class="st0" d="M496.88,141.43c1.08,0.2,2.72,0.66,4.03,1.12c0.68,0.24,1.18,0.2,1.68-0.36c0.17-0.19,0.6-0.31,0.85-0.24
		c0.17,0.05,0.33,0.48,0.33,0.74c0.01,1.21-0.04,2.43-0.07,3.64c-0.01,0.5,0.02,1.13-0.65,1.1c-0.28-0.01-0.68-0.56-0.77-0.92
		c-0.5-1.9-1.91-2.96-3.57-3.52c-1.59-0.54-3.32-0.5-4.96,0.12c-1.19,0.45-2.2,1.04-2.43,2.45c-0.27,1.7,0.24,3.01,1.67,4.02
		c2.2,1.55,4.74,2.42,7.12,3.6c1.91,0.94,3.84,2.08,4.41,4.36c0.57,2.29,0.1,4.39-1.47,6.26c-2.27,2.68-5.26,2.9-8.36,2.46
		c-1.45-0.21-2.85-0.95-4.23-1.55c-0.67-0.29-1.05-0.28-1.27,0.45c-0.16,0.51-0.44,1.03-1.03,0.71c-0.24-0.13-0.32-0.74-0.31-1.14
		c0.01-1.38,0.08-2.76,0.17-4.14c0.02-0.29,0.21-0.56,0.32-0.84c0.28,0.12,0.64,0.18,0.84,0.39c0.29,0.3,0.57,0.68,0.69,1.07
		c0.88,2.72,4.19,4.35,7.23,4.06c1.2-0.12,2.42-0.1,3.49-0.89c1.56-1.16,1.97-3.12,0.91-4.78c-1.11-1.74-2.95-2.38-4.72-3.08
		c-2.27-0.89-4.57-1.72-6.43-3.38c-1.31-1.18-1.98-2.58-2.05-4.41c-0.08-2.33,0.88-4.02,2.57-5.46
		C492.17,142.18,494.14,140.99,496.88,141.43z"/>
	<path class="st0" d="M426.21,163.79c0,1.04,0.42,1.37,1.49,1.31c0.51-0.03,1.04,0.16,1.56,0.28c0.04,0.01,0.04,0.42,0,0.43
		c-0.51,0.12-1.04,0.3-1.56,0.3c-2.5,0-5-0.05-7.5-0.08c-0.13,0-0.29,0.03-0.39-0.03c-0.27-0.17-0.52-0.38-0.78-0.57
		c0.26-0.15,0.52-0.39,0.79-0.42c0.52-0.06,1.05,0.04,1.58,0.02c0.73-0.03,1.02-0.42,1.01-1.16c-0.06-3.16-0.09-6.32-0.1-9.49
		c-0.02-3.33,0.04-6.66-0.03-9.98c-0.03-1.6-0.2-1.67-1.76-1.6c-0.59,0.03-1.19,0.04-1.78,0.03c-2.06-0.04-3.78,1.34-4.14,3.38
		c-0.11,0.65-0.07,1.33-0.24,1.96c-0.1,0.35-0.79,1.26-1.26-0.12c-0.01-1.7,0.09-3.4,0.08-5.1c0-1.17,0.38-1.5,1.46-1.18
		c0.37,0.11,0.78,0.16,1.16,0.13c2.23-0.18,4.44-0.4,6.7,0.02c1.17,0.22,2.43-0.08,3.64-0.11c1.51-0.04,3.02-0.05,4.52-0.05
		c1.09,0,2.18,0.01,3.26,0.07c1.11,0.06,1.33,0.54,1.25,1.61c-0.1,1.36,0.02,2.75,0.05,4.12c0,0.2,0.12,0.43,0.06,0.58
		c-0.15,0.35-0.92,1.28-1.18,0.08c-0.17-0.73-0.13-1.51-0.34-2.22c-0.76-2.66-2.91-3.14-5.26-3.19c-2.37-0.05-2.27,0.02-2.23,2.09
		C426.31,147.9,426.21,160.49,426.21,163.79z"/>
	<path class="st0" d="M394.22,160.42c0-1.02,0.15-2.07-0.04-3.05c-0.18-0.9-0.67-1.75-1.12-2.56c-1.06-1.89-2.18-3.75-3.29-5.62
		c-1.17-1.99-2.31-3.99-3.57-5.93c-0.24-0.37-0.97-0.4-1.44-0.64c-0.33-0.17-0.75-0.96,0.14-1.03c2.53-0.04,5.05-0.04,7.58-0.05
		c0.2,0,0.48,0.03,0.62,0.1c0.52,0.18,0.77,0.55-0.04,0.96c-0.21,0.1-0.6,0.01-0.86,0.02c-0.34,0.01-0.93,0.01-0.98,0.16
		c-0.12,0.35-0.1,0.85,0.06,1.19c0.4,0.83,0.91,1.6,1.37,2.4c1.35,2.34,2.7,4.68,4.04,7.02c0.46,0.8,0.99,0.84,1.47,0.02
		c1.04-1.79,2.01-3.62,3.04-5.42c0.7-1.23,1.48-2.41,2.16-3.65c0.21-0.39,0.39-0.96,0.25-1.32c-0.1-0.24-0.78-0.27-1.2-0.35
		c-0.18-0.03-0.23-0.02-0.57-0.02c-0.67,0-0.68-0.68-0.05-0.97c0.27-0.06,0.39-0.04,0.59-0.04c1.47-0.06,2.93-0.14,4.4-0.18
		c0.36-0.01,0.77,0.09,1.05,0.28c0.15,0.1,0.19,0.7,0.08,0.78c-0.29,0.2-0.73,0.37-1.04,0.29c-1.01-0.27-1.45,0.15-1.92,1.02
		c-1.87,3.44-3.77,6.87-5.78,10.23c-0.82,1.37-0.95,2.75-0.92,4.26c0.04,1.71,0.02,3.42-0.04,5.13c-0.04,1.08,0.33,1.53,1.42,1.48
		c0.23-0.01,0.48-0.1,0.69-0.04c1.05,0.25,0.39,1.03,0.08,1.06c-0.85,0.08-1.71,0.04-2.57,0.04c-1.91,0-3.81-0.01-5.72-0.02
		c-0.23,0-0.5,0.06-0.68-0.03c-0.2-0.1-0.43-0.36-0.43-0.55c0-0.17,0.29-0.46,0.47-0.48c0.52-0.06,1.05,0,1.58-0.01
		c0.84-0.02,1.25-0.4,1.2-1.3C394.18,162.53,394.23,161.48,394.22,160.42C394.23,160.42,394.22,160.42,394.22,160.42z"/>
	<path class="st0" d="M331.07,164.86c1.48-0.17,1.89-1.29,2.33-2.47c1.87-5,3.78-9.98,5.71-14.95c0.65-1.69,1.33-3.36,2.08-5.01
		c0.21-0.45,0.76-1.12,1.07-1.08c0.47,0.07,1.04,0.58,1.28,1.04c0.69,1.38,1.22,2.84,1.83,4.26c1.44,3.36,2.91,6.7,4.31,10.07
		c0.91,2.19,1.72,4.42,2.57,6.64c0.26,0.68,0.64,1.17,1.41,1.39c0.83,0.23,0.92,0.87-0.2,0.98c-1.48,0-2.96-0.1-4.44-0.13
		c-0.69-0.02-1.33,0.01-2.02-0.05c-0.97-0.09-0.66-0.69-0.04-0.78c1.39-0.13,1.64-0.58,1.01-1.84c-0.51-1.03-1.03-2.07-1.47-3.13
		c-0.31-0.75-0.79-1.04-1.59-1.04c-2.57-0.01-5.13-0.06-7.7-0.11c-0.72-0.01-1.19,0.29-1.45,0.95c-0.5,1.25-1.02,2.5-1.52,3.75
		c-0.28,0.7,0.08,1.24,0.85,1.31c0.23,0.02,0.46-0.03,0.69-0.04c0.43-0.02,0.98-0.08,0.91,0.55c-0.03,0.22-0.55,0.55-0.86,0.55
		c-1.34,0.03-2.69-0.02-4.03-0.09C331.46,165.61,329.71,165.57,331.07,164.86z M341.05,157.85c1.15,0,2.31,0.04,3.46-0.01
		c0.9-0.04,1.13-0.47,0.81-1.22c-1.02-2.32-2.05-4.64-3.03-6.97c-0.28-0.66-0.36-1.41-0.64-2.07c-0.12-0.29-0.5-0.63-0.77-0.65
		c-0.22-0.01-0.49,0.42-0.7,0.68c-0.1,0.12-0.12,0.31-0.17,0.46c-1.04,2.77-2.07,5.55-3.12,8.32c-0.36,0.93-0.04,1.45,1,1.46
		C338.94,157.86,339.99,157.85,341.05,157.85z"/>
	<path class="st0" d="M272.69,164.76c1.36-0.1,1.71-1.14,2.11-2.17c2.53-6.51,5.06-13.02,7.62-19.51c0.28-0.71,0.3-1.72,1.45-1.74
		c1.13-0.02,1.14,0.97,1.42,1.64c2.81,6.68,5.59,13.37,8.36,20.06c0.32,0.76,0.63,1.44,1.6,1.53c0.87,0.19,0.97,0.9-0.16,1.04
		c-2.17,0.04-4.35,0.12-6.52,0.01c-0.66-0.03-0.83-0.74-0.02-1.01c1.19-0.17,1.38-0.5,0.87-1.63c-0.54-1.2-1.08-2.4-1.59-3.61
		c-0.28-0.66-0.71-0.94-1.45-0.91c-2.43,0.08-4.87,0.15-7.3,0.1c-0.9-0.02-1.43,0.19-1.76,1.04c-0.46,1.2-1,2.37-1.47,3.56
		c-0.42,1.06,0,1.6,1.11,1.46c0.16-0.02,0.38-0.01,0.52,0.03c0.77,0.23,0.3,0.94,0.08,0.95c-1.51,0.03-3.02,0.01-4.53-0.04
		C271.99,165.54,272.59,164.77,272.69,164.76z M282.42,157.73c0,0.01,0,0.02,0,0.04c1.12,0,2.24,0.06,3.35-0.02
		c1.17-0.07,1.38-0.58,0.92-1.65c-1.17-2.72-2.29-5.46-3.46-8.17c-0.17-0.39-0.49-0.7-0.75-1.05c-0.27,0.34-0.64,0.64-0.79,1.02
		c-1.12,2.81-2.19,5.63-3.28,8.45c-0.34,0.88-0.08,1.35,0.86,1.38C280.32,157.75,281.37,157.73,282.42,157.73z"/>
	<path class="st0" d="M463.43,153.86c0.2,1.66,0.26,3.35,0.62,4.97c0.53,2.39,1.68,4.46,3.95,5.65c1.72,0.9,3.59,0.82,5.42,0.54
		c2.24-0.34,4.22-1.25,5.62-3.15c0.11-0.15,0.41-0.16,0.63-0.23c0.02,0.33,0.18,0.81,0.03,0.97c-0.84,0.86-1.64,1.87-2.67,2.42
		c-4.48,2.37-9.01,1.95-13.2-0.59c-2.46-1.49-4.15-3.86-4.54-6.87c-0.2-1.59-0.4-3.22-0.28-4.8c0.32-4.14,2-7.59,5.87-9.56
		c1.9-0.97,3.9-1.55,6.15-1.54c2.29,0.01,4.36,0.4,6.35,1.47c0.73,0.39,1.32,0.26,1.62-0.64c0.08-0.25,0.41-0.42,0.62-0.62
		c0.14,0.28,0.38,0.56,0.39,0.85c0.02,0.72-0.12,1.45-0.11,2.17c0.01,0.78,0.16,1.57,0.13,2.35c-0.01,0.36-0.3,0.71-0.47,1.07
		c-0.3-0.25-0.76-0.43-0.87-0.75c-1.45-4.06-6.28-5.97-10.2-4.26c-3.28,1.44-4.25,4.19-4.8,7.28c-0.19,1.06-0.12,2.17-0.18,3.25
		C463.48,153.85,463.45,153.85,463.43,153.86z"/>
	<path class="st0" d="M530.45,153.82c-0.15,2.15-0.04,4.28,0.87,6.28c1.78,3.92,4.34,5.38,8.5,4.5c1.99-0.42,3.86-1.08,5.17-2.81
		c0.2-0.26,1.11,0.42,0.92,0.69c-0.96,1.36-2.32,2.27-3.83,2.82c-4.12,1.48-8.14,1.24-11.78-1.33c-2.37-1.67-3.96-3.95-4.2-6.95
		c-0.14-1.7-0.42-3.43-0.23-5.1c0.5-4.25,2.78-7.5,6.61-9.32c3.63-1.73,7.45-1.78,11.15,0.1c0.88,0.45,1.22,0.31,1.69-0.6
		c0.11-0.2,0.34-0.34,0.52-0.5c0.16,0.19,0.43,0.36,0.46,0.56c0.1,0.68,0.13,1.37,0.16,2.06c0.04,0.92,0.11,1.84,0.07,2.75
		c-0.02,0.39-1.27,0.69-1.49,0.33c-0.57-0.9-0.82-2.1-1.56-2.77c-1.62-1.48-3.61-2.19-5.9-1.95c-2.19,0.22-4.03,1.03-5.32,2.83
		c-1.11,1.56-1.61,3.38-1.81,5.26C530.36,151.7,530.45,152.77,530.45,153.82z"/>
	<path class="st0" d="M555.82,155.97c0.15-4.61,0.26-8.14,0.37-11.66c0.03-1.08-0.46-1.6-1.58-1.73c-0.49-0.05-1.25,0.12-1.22-0.64
		c0.03-0.75,0.8-0.53,1.28-0.54c2.27-0.04,4.53-0.03,6.8-0.04c0.2,0,0.44-0.04,0.58,0.06c0.24,0.17,0.18,1.15-0.06,1.18
		c-1.86,0.24-1.86,0.22-1.89,2.14c-0.1,5.79-0.21,11.59-0.32,17.38c0,0.13,0,0.26-0.02,0.39c-0.17,1.75-0.13,1.85,1.61,1.91
		c1.55,0.05,3.1,0.04,4.64-0.06c1.98-0.13,3.55-1.92,3.74-4.1c0.01-0.16-0.03-0.34,0.02-0.49c0.16-0.42,1.28-0.45,1.29-0.05
		c0.05,1.71-0.03,3.42-0.1,5.13c-0.03,0.7-0.48,0.89-1.16,0.89c-5.39,0.03-10.79,0.08-16.18,0.13c-0.56,0.01-1.18-0.03-1.15-0.73
		c0.03-0.65,0.64-0.63,1.16-0.57c0.26,0.03,0.53,0.06,0.79,0.06c0.98-0.01,1.38-0.39,1.39-1.38
		C555.83,160.48,555.82,157.68,555.82,155.97z"/>
	<path class="st0" d="M377.76,158.49c0.95,0.27,1.09,0.83,1.09,1.45c0.01,1.51,0,3.03,0,4.54c0,1.09-0.27,1.26-1.37,1.23
		c-1.45-0.03-2.9,0.08-4.34,0.07c-2.4-0.02-4.8-0.13-7.21-0.15c-1.51-0.01-3.03,0.07-4.55,0.1c-0.43,0.01-0.87,0.05-1.28-0.03
		c-0.57-0.12-0.57-0.75,0-0.95c0.45-0.06,0.92,0.02,1.38,0.03c1.29,0.04,1.67-0.43,1.64-1.71c-0.06-3.1-0.04-6.2-0.07-9.3
		c-0.03-3.12-0.07-6.25-0.11-9.37c0-0.16,0.03-0.33,0.05-0.49c0.12-1.07-0.3-1.54-1.36-1.54c-0.26,0-0.57,0.15-0.78,0.05
		c-0.54-0.28-0.69-0.81,0.05-1.05c2.63-0.01,5.27,0,7.9,0.07c1.21,0.31,0.79,0.96-0.02,1.12c-0.11,0.02-0.26-0.02-0.39-0.03
		c-1.19-0.11-1.5,0.13-1.5,1.34c0,2.41,0.06,4.81,0.06,7.22c0.01,4.12,0.02,8.24-0.02,12.36c-0.01,0.85,0.38,1.31,1.12,1.32
		c2,0.01,4.03,0.07,6.01-0.16c1.81-0.21,3.31-2.24,3.46-4.2C377.58,159.82,377.67,159.22,377.76,158.49z"/>
	<path class="st0" d="M444.93,154c0-3.33-0.01-6.66,0-9.98c0-0.78-0.45-1.03-1.13-1.07c-0.52-0.03-1.06,0.02-1.57-0.06
		c-0.2-0.03-0.53-0.33-0.51-0.46c0.03-0.24,0.25-0.52,0.47-0.66c0.2-0.13,0.51-0.13,0.77-0.11c2.66,0.27,5.33,0.28,7.99,0
		c0.52-0.06,1.19-0.16,1.19,0.62c0,0.72-0.65,0.7-1.19,0.71c-1.96,0.02-2,0.02-2.02,1.99c-0.04,4.81-0.03,9.62-0.06,14.43
		c-0.01,1.42-0.1,2.83-0.15,4.25c-0.04,1.17,0.35,1.55,1.53,1.48c0.33-0.02,0.67-0.05,0.98,0c1.22,0.2,1.22,0.88-0.06,1.18
		c-1.08,0.01-2.17-0.16-3.25-0.16c-1.71-0.01-3.42,0.07-5.13,0.07c-0.33,0-0.68-0.15-0.96-0.33c-0.09-0.06-0.08-0.55,0.01-0.6
		c0.27-0.14,0.6-0.17,0.91-0.2c0.19-0.02,0.39,0.07,0.58,0.1c1.18,0.16,1.57-0.19,1.56-1.39c-0.01-3.26,0-6.53,0-9.79
		C444.9,154,444.91,154,444.93,154z"/>
	<path class="st0" d="M517.45,163.84c0.02,1.5-0.8,2.49-2.06,2.48c-1.16-0.01-2.45-1.12-2.46-2.12c-0.01-1.58,0.97-2.76,2.3-2.77
		C516.65,161.42,517.42,162.27,517.45,163.84z"/>
</g>
<path d="M196.1,165.85h-1.2c-0.43,0-0.77-0.34-0.77-0.77V0.98c0-0.43,0.34-0.77,0.77-0.77h1.2c0.43,0,0.77,0.34,0.77,0.77v164.1
	C196.87,165.5,196.52,165.85,196.1,165.85z"/>
</svg>
