<svg xmlns="http://www.w3.org/2000/svg" viewBox="0 0 64 64" width="64" height="64">
  <defs>
    <linearGradient id="grad14" x1="0%" y1="0%" x2="100%" y2="100%">
      <stop offset="0%" style="stop-color:#0056b3;stop-opacity:1" />
      <stop offset="100%" style="stop-color:#216a69;stop-opacity:1" />
    </linearGradient>
  </defs>
  <circle cx="32" cy="32" r="28" fill="none" stroke="url(#grad14)" stroke-width="2"/>
  <path d="M20 24 L24 24 L24 40 L20 40 Z" fill="none" stroke="url(#grad14)" stroke-width="2"/>
  <path d="M28 28 L32 28 L32 40 L28 40 Z" fill="none" stroke="url(#grad14)" stroke-width="2"/>
  <path d="M36 22 L40 22 L40 40 L36 40 Z" fill="none" stroke="url(#grad14)" stroke-width="2"/>
  <path d="M44 26 L48 26 L48 40 L44 40 Z" fill="none" stroke="url(#grad14)" stroke-width="2"/>
  <path d="M18 44 L50 44" stroke="url(#grad14)" stroke-width="2" stroke-linecap="round"/>
  <path d="M22 24 L26 28 M30 28 L34 22 M38 22 L42 26 M46 26 L48 24" fill="none" stroke="url(#grad14)" stroke-width="1.5" stroke-linecap="round"/>
</svg>
